# xmcd
#
# Track frame offsets:
#	150
#	15622
#	25863
#	40963
#	57304
#	68284
#	80542
#	90275
#	103850
#	124156
#	133499
#	148344
#	163286
#	176946
#	191308
#	204055
#	217144
#	238070
#	247101
#	261250
#
# Disc length: 3682 seconds
#
# Revision: 0
# Processed by: cddbd v1.5.1PL0 Copyright (c) Steve Scherf et al.
# Submitted via: audiograbber 1.83.01
#
DISCID=2a0e6014
DTITLE=Various Artist - 1. velky trampsky zpevnik  Ce - Gen
DYEAR=2005
DGENRE=Country
TTITLE0=Cerna Mary
TTITLE1=Cerne sombrero
TTITLE2=Cerny muz
TTITLE3=Dajo nevolej
TTITLE4=Dakota
TTITLE5=Dal, dal, dal
TTITLE6=Dany Truck
TTITLE7=Diger
TTITLE8=Divka z Cheyenne
TTITLE9=Dlouha cesta
TTITLE10=Do pokeru
TTITLE11=Don Pedro
TTITLE12=Doney Gal
TTITLE13=Drsnak
TTITLE14=Drevorubecky bal
TTITLE15=Dva trempove
TTITLE16=Dve reky
TTITLE17=El capitano
TTITLE18=Frankie Dlouhan
TTITLE19=General
EXTD=
EXTT0=
EXTT1=
EXTT2=
EXTT3=
EXTT4=
EXTT5=
EXTT6=
EXTT7=
EXTT8=
EXTT9=
EXTT10=
EXTT11=
EXTT12=
EXTT13=
EXTT14=
EXTT15=
EXTT16=
EXTT17=
EXTT18=
EXTT19=
PLAYORDER=
